<svg width="14" height="14" viewBox="0 0 14 14" fill="none" xmlns="http://www.w3.org/2000/svg">
<g clip-path="url(#clip0_1_1344)">
<path d="M10.0625 1.07983C9.46414 1.08562 8.87549 1.23147 8.34368 1.50568C7.81186 1.77989 7.35166 2.17485 6.99995 2.65891C6.64824 2.17485 6.18805 1.77989 5.65623 1.50568C5.12442 1.23147 4.53577 1.08562 3.93745 1.07983C2.85348 1.12312 1.83075 1.59385 1.09289 2.3891C0.355024 3.18435 -0.0379323 4.23941 -5.91213e-05 5.32358C-5.91213e-05 7.97891 2.72645 10.8215 5.01662 12.7389C5.57273 13.2065 6.276 13.4629 7.00258 13.4629C7.72916 13.4629 8.43243 13.2065 8.98854 12.7389C11.2764 10.8215 14.0052 7.97891 14.0052 5.32358C14.0431 4.23853 13.6494 3.18271 12.9104 2.38731C12.1714 1.59191 11.1474 1.12177 10.0625 1.07983ZM7.86154 11.3978C7.62029 11.6009 7.31504 11.7123 6.99966 11.7123C6.68428 11.7123 6.37904 11.6009 6.13779 11.3978C3.34945 9.05982 1.74994 6.84607 1.74994 5.32358C1.71275 4.70362 1.92161 4.09402 2.33117 3.62712C2.74073 3.16022 3.31793 2.87373 3.93745 2.82983C4.55697 2.87373 5.13417 3.16022 5.54373 3.62712C5.95329 4.09402 6.16214 4.70362 6.12495 5.32358C6.12495 5.55564 6.21714 5.7782 6.38123 5.94229C6.54533 6.10639 6.76789 6.19858 6.99995 6.19858C7.23202 6.19858 7.45458 6.10639 7.61867 5.94229C7.78277 5.7782 7.87496 5.55564 7.87496 5.32358C7.83776 4.70362 8.04662 4.09402 8.45618 3.62712C8.86574 3.16022 9.44294 2.87373 10.0625 2.82983C10.682 2.87373 11.2592 3.16022 11.6687 3.62712C12.0783 4.09402 12.2872 4.70362 12.25 5.32358C12.25 6.84607 10.6505 9.05982 7.86154 11.3978Z" fill="#505050"/>
</g>
<defs>
<clipPath id="clip0_1_1344">
<rect width="14" height="14" fill="white"/>
</clipPath>
</defs>
</svg>
