<svg width="136" height="60" viewBox="0 0 136 60" fill="none" xmlns="http://www.w3.org/2000/svg">
<g clip-path="url(#clip0_219_1288)">
<path d="M28.3081 2.40355C33.4355 2.40364 38.4477 3.93823 42.711 6.81327C46.9742 9.6883 50.297 13.7747 52.2591 18.5556C54.2213 23.3365 54.7347 28.5973 53.7344 33.6727C52.7341 38.7482 50.2651 43.4102 46.6396 47.0695C44.2322 49.4992 41.3743 51.4266 38.229 52.7416C35.0836 54.0566 31.7124 54.7335 28.3079 54.7335C24.9033 54.7336 21.5321 54.0569 18.3867 52.7421C15.2412 51.4273 12.3832 49.5 9.97578 47.0704C7.56834 44.6408 5.65863 41.7565 4.35568 38.582C3.05273 35.4075 2.38207 32.0051 2.38198 28.5691C2.38189 25.133 3.05238 21.7306 4.35516 18.556C5.65794 15.3815 7.5675 12.497 9.97482 10.0673C12.377 7.63014 15.2342 5.69795 18.3811 4.38248C21.5279 3.06702 24.902 2.3944 28.3081 2.40355V2.40355ZM28.3081 6.62056e-08C22.7091 -0.000384541 17.2358 1.67496 12.5802 4.81416C7.92461 7.95335 4.29597 12.4154 2.15315 17.636C0.0103205 22.8567 -0.550441 28.6014 0.541779 34.1436C1.634 39.6859 4.33014 44.7768 8.28924 48.7726C12.2483 52.7683 17.2926 55.4894 22.784 56.5918C28.2755 57.6941 33.9675 57.1281 39.1402 54.9655C44.313 52.8028 48.7341 49.1406 51.8445 44.4419C54.9549 39.7433 56.6149 34.2192 56.6145 28.5684C56.6145 24.8167 55.8823 21.1018 54.4598 17.6357C53.0373 14.1697 50.9522 11.0203 48.3238 8.36748C45.6953 5.71466 42.5748 3.61033 39.1405 2.17464C35.7062 0.738943 32.0254 6.62056e-08 28.3081 6.62056e-08V6.62056e-08Z" fill="#505050"/>
<path d="M53.3083 5.58289C53.0503 5.31081 52.7405 5.09409 52.3975 4.94573C52.0545 4.79737 51.6854 4.72042 51.3122 4.71948H51.1426C48.316 4.8945 41.1831 5.88625 36.0193 11.2709C34.0451 13.3184 32.2147 15.5023 30.5415 17.8068C29.2139 19.6016 28.8941 19.9672 28.185 20.0567C27.474 19.9672 27.1561 19.6016 25.8286 17.8068C24.1545 15.5024 22.3235 13.3185 20.3488 11.2709C15.187 5.8882 8.054 4.89644 5.22549 4.72532C5.16961 4.72532 5.11181 4.72532 5.05593 4.72532C4.68262 4.7257 4.31326 4.80244 3.97015 4.95089C3.62703 5.09933 3.31729 5.31641 3.0596 5.58902C2.80192 5.86163 2.60164 6.18412 2.47087 6.53701C2.34009 6.8899 2.28152 7.26588 2.2987 7.64224C2.67057 15.6793 6.27751 20.7256 9.23512 23.5414C10.8001 25.035 12.5744 26.2878 14.501 27.2595L14.16 28.298L14.1792 28.5683C14.2252 29.2388 14.2335 29.9114 14.2043 30.5829C13.3268 31.0984 12.6478 31.8981 12.2775 32.8523H11.2409V37.2957H12.1349C12.2876 38.0607 12.547 38.7999 12.9056 39.4912C12.1677 45.3873 13.7515 48.9362 15.2332 50.8886C16.0282 51.9539 17.0325 52.8423 18.1831 53.4983C18.5839 57.5158 21.79 59.8844 26.9307 59.8844C27.5087 59.8844 27.948 59.8513 28.1754 59.8299C28.4008 59.8513 28.8401 59.8844 29.4182 59.8844C34.5588 59.8844 37.765 57.5158 38.1658 53.4983C39.3352 52.8314 40.3538 51.9253 41.1561 50.838C42.6841 48.8001 44.3026 45.0528 43.345 38.7678L43.3353 38.7075L43.3218 38.6511C43.3218 38.6511 43.2775 38.4703 43.2101 38.1611C43.2987 37.8752 43.3739 37.5874 43.4336 37.2957H44.3257V32.8484H43.2891C43.0453 32.2216 42.6662 31.6576 42.1792 31.1974C42.1223 30.3207 42.1223 29.4411 42.1792 28.5644L42.2004 28.2941L41.8613 27.2595C43.7891 26.287 45.5647 25.0336 47.1311 23.5395C50.0906 20.7237 53.6956 15.6774 54.0675 7.6403C54.0847 7.26345 54.0263 6.88697 53.8959 6.53344C53.7654 6.1799 53.5656 5.8566 53.3083 5.58289V5.58289Z" fill="white"/>
<path d="M52.7283 7.5724C52.7376 7.37153 52.7049 7.17092 52.6322 6.98367C52.5596 6.79641 52.4487 6.62671 52.3067 6.48561C52.1647 6.34452 51.9948 6.23521 51.8082 6.1648C51.6216 6.0944 51.4223 6.06448 51.2235 6.07699C48.2909 6.25979 41.7533 7.24376 36.9845 12.2181C30.6531 18.8298 30.7591 21.2081 28.1849 21.4239C25.6088 21.2081 25.7167 18.824 19.3853 12.2181C14.6146 7.23988 8.07702 6.25784 5.14446 6.07699C4.94566 6.06479 4.74655 6.09492 4.56005 6.16544C4.37354 6.23595 4.20382 6.34528 4.06191 6.4863C3.91999 6.62733 3.80906 6.79691 3.73631 6.98402C3.66356 7.17114 3.63062 7.37161 3.63964 7.5724C4.31979 22.2582 16.1637 26.5149 16.1637 26.5149L15.5202 28.4595C15.8419 32.7921 14.3391 38.9605 14.3391 38.9605C12.6223 50.2256 19.4893 52.6078 19.4893 52.6078C19.4913 59.5404 28.1811 58.465 28.1811 58.465C28.1811 58.465 36.8728 59.5462 36.8728 52.6156C36.8728 52.6156 43.7398 50.2334 42.0231 38.9683C42.0231 38.9683 40.5221 32.796 40.8439 28.4673L40.1984 26.5227C40.1984 26.5227 52.05 22.2582 52.7283 7.5724Z" fill="#505050"/>
<path d="M47.4759 9.44507C44.8247 9.939 37.0713 11.7008 36.447 15.4734C36.447 15.4734 37.4104 13.6318 41.1696 12.9823C41.1696 12.9823 37.9499 14.0655 36.447 17.8555C36.447 17.8555 38.1638 15.9109 40.7399 15.5803C40.7399 15.5803 37.7341 17.206 36.447 19.4696C36.447 19.4696 39.7746 16.6538 41.5973 16.6538C41.5973 16.6538 39.0231 18.1706 37.7437 20.0121C37.7437 20.0121 39.4624 18.3864 41.501 18.3864C41.501 18.3864 38.711 19.0379 37.7437 22.2757C37.7437 22.2757 38.6031 20.543 40.4278 20.1113C40.4278 20.1113 38.501 22.2757 38.501 24.335C38.501 24.335 39.5742 22.3904 40.7553 21.4181C40.7553 21.4181 39.4682 22.9349 38.9306 26.0754C38.9306 26.0754 50.6397 21.1419 48.5646 10.1782C48.5162 9.93546 48.3744 9.72198 48.1704 9.58456C47.9663 9.44713 47.7166 9.39697 47.4759 9.44507V9.44507Z" fill="white"/>
<path d="M8.89211 9.44502C11.5453 9.93895 19.2967 11.7008 19.921 15.4733C19.921 15.4733 18.9576 13.6318 15.2004 12.9823C15.2004 12.9823 18.4181 14.0654 19.921 17.8555C19.921 17.8555 18.2042 15.9109 15.6281 15.5803C15.6281 15.5803 18.6339 17.206 19.921 19.4695C19.921 19.4695 16.5954 16.6537 14.7707 16.6537C14.7707 16.6537 17.3449 18.1705 18.6243 20.0121C18.6243 20.0121 16.9075 18.3864 14.8671 18.3864C14.8671 18.3864 17.659 19.0378 18.6243 22.2756C18.6243 22.2756 17.7649 20.543 15.9403 20.1112C15.9403 20.1112 17.8671 22.2756 17.8671 24.335C17.8671 24.335 16.7938 22.3903 15.6127 21.418C15.6127 21.418 16.9017 22.9348 17.4374 26.0754C17.4374 26.0754 5.73026 21.1419 7.80348 10.1781C7.82696 10.0577 7.87379 9.94314 7.94129 9.84104C8.00878 9.73893 8.09561 9.65129 8.19678 9.58317C8.29794 9.51504 8.41145 9.46776 8.53078 9.44405C8.65011 9.42035 8.77291 9.42067 8.89211 9.44502Z" fill="white"/>
<path d="M13.8516 34.2039H12.5876V35.9365H13.8516V34.2039Z" fill="#505050"/>
<path d="M41.7303 35.9365H42.9943V34.2039H41.7303V35.9365Z" fill="#505050"/>
<path d="M35.3854 42.5794C33.5614 42.5773 31.8126 41.845 30.523 40.5431C29.2334 39.2412 28.5083 37.4761 28.5068 35.6352V35.3999C28.5063 35.2087 28.4308 35.0255 28.2968 34.8903C28.1629 34.7551 27.9814 34.6789 27.7919 34.6784H27.765C27.5796 34.6845 27.4039 34.7632 27.2751 34.8979C27.1463 35.0326 27.0746 35.2127 27.0752 35.3999V35.6352C27.0905 36.5567 26.9238 37.4722 26.5849 38.3281C26.2461 39.184 25.7418 39.9632 25.1014 40.6204C24.4611 41.2776 23.6975 41.7995 22.8552 42.1558C22.013 42.5121 21.1089 42.6956 20.1956 42.6956C19.2823 42.6956 18.3782 42.5121 17.536 42.1558C16.6937 41.7995 15.9301 41.2776 15.2898 40.6204C14.6494 39.9632 14.1451 39.184 13.8063 38.3281C13.4674 37.4722 13.3007 36.5567 13.316 35.6352V34.5053C13.317 33.6598 13.6503 32.8492 14.2427 32.2514C14.8351 31.6535 15.6382 31.3172 16.4759 31.3162H39.106C39.9438 31.3172 40.7469 31.6535 41.3393 32.2514C41.9317 32.8492 42.2649 33.6598 42.2659 34.5053V35.6352C42.2639 37.4762 41.5383 39.2413 40.2484 40.5432C38.9585 41.845 37.2096 42.5773 35.3854 42.5794V42.5794Z" fill="white"/>
<path d="M39.1059 31.7478H16.4759C16.1172 31.7478 15.762 31.8191 15.4306 31.9577C15.0992 32.0963 14.7981 32.2995 14.5446 32.5556C14.291 32.8116 14.09 33.1156 13.9529 33.4502C13.8158 33.7847 13.7454 34.1432 13.7456 34.5053V35.6351C13.7456 37.3618 14.4252 39.0178 15.635 40.2388C16.8448 41.4597 18.4856 42.1457 20.1965 42.1457C21.906 42.1436 23.5448 41.4568 24.7529 40.236C25.961 39.0153 26.6396 37.3605 26.6396 35.6351V35.3998C26.64 35.1004 26.7555 34.8128 26.9618 34.5977C27.1681 34.3826 27.4491 34.2567 27.7456 34.2466V34.2466C27.899 34.2411 28.052 34.2669 28.1953 34.3224C28.3386 34.3779 28.4694 34.462 28.5798 34.5696C28.6902 34.6772 28.778 34.8062 28.838 34.9489C28.8979 35.0915 28.9287 35.2449 28.9286 35.3998V35.6351C28.9286 37.3618 29.6083 39.0178 30.8181 40.2388C32.0278 41.4597 33.6686 42.1457 35.3795 42.1457V42.1457C37.0904 42.1457 38.7312 41.4597 39.941 40.2388C41.1507 39.0178 41.8304 37.3618 41.8304 35.6351V34.5053C41.8309 33.7751 41.5443 33.0746 41.0334 32.5576C40.5226 32.0406 39.8294 31.7493 39.1059 31.7478V31.7478Z" fill="#505050"/>
<path d="M16.1292 36.5938L21.1388 33.2004L19.923 35.077L24.1349 33.1926L20.4933 35.9365L23.7843 35.0692L16.7727 40.1971L18.5627 37.6691L16.1292 38.2525C16.1292 38.2525 18.8478 37.0255 18.5627 36.9535C18.2775 36.8816 16.1292 36.5938 16.1292 36.5938Z" fill="white"/>
<path d="M31.5106 36.5938L36.5202 33.2004L35.3102 35.0692L39.5318 33.1926L35.8825 35.9365L39.1638 35.0692L32.1522 40.1971L33.9422 37.6691L31.5087 38.2525C31.5087 38.2525 34.2274 37.0255 33.9422 36.9535C33.657 36.8816 31.5106 36.5938 31.5106 36.5938Z" fill="white"/>
<path d="M35.5164 48.7165C34.1676 44.8272 29.0424 46.1165 29.0424 46.1165L28.1811 45.9084L27.3256 46.1224C27.3256 46.1224 22.2081 44.8175 20.8593 48.7165C19.5106 52.6154 21.1194 56.283 23.4701 57.3817C25.6435 58.3948 28.0135 59.1046 28.1927 56.6427C28.3699 59.1046 30.7399 58.3929 32.9133 57.3817C35.2582 56.283 36.8767 52.6154 35.5164 48.7165ZM28.1946 55.9738C27.9788 52.7243 21.9865 51.3067 24.2851 48.3898C24.2851 48.3898 25.8266 50.2313 28.1946 50.2313C30.5626 50.2313 32.1021 48.3898 32.1021 48.3898C34.3911 51.3164 28.3988 52.7341 28.1811 55.9738H28.1946Z" fill="white"/>
<path d="M26.2177 50.6669C26.2177 50.6669 28.9344 51.5323 31.1541 49.8715C31.1541 49.8715 31.6531 49.6771 30.7957 50.8925C29.9383 52.1079 25.8689 51.894 26.2177 50.6669Z" fill="white"/>
<path d="M72.8497 34.2058V36.8952H63.6339V22.9814H66.736V34.2038L72.8497 34.2058Z" fill="#505050"/>
<path d="M84.7014 36.8952C84.5491 36.411 84.3834 35.9229 84.2081 35.4056L83.6725 33.8849H78.2967C78.1233 34.3931 77.9486 34.9013 77.7727 35.4095C77.5992 35.9209 77.4355 36.4149 77.2852 36.8952H74.0636C74.5774 35.3965 75.0694 34.0113 75.5395 32.7395C76.0097 31.4678 76.465 30.2699 76.9056 29.1459C77.3513 28.0219 77.79 26.955 78.2216 25.9451C78.6532 24.9351 79.1028 23.9479 79.5703 22.9834H82.5164C82.9685 23.9479 83.4149 24.9351 83.8555 25.9451C84.2961 26.955 84.7386 28.0219 85.1831 29.1459C85.6301 30.2699 86.0867 31.4678 86.553 32.7395C87.0193 34.0113 87.5119 35.3965 88.0308 36.8952H84.7014ZM80.975 26.1356C80.9056 26.3301 80.8035 26.6121 80.6705 26.9601C80.5376 27.3082 80.3854 27.7088 80.2158 28.1658C80.0463 28.6228 79.8536 29.1226 79.6378 29.6709C79.422 30.2193 79.2139 30.793 78.9962 31.3958H82.9384C82.7277 30.7904 82.5235 30.2135 82.3256 29.6651C82.133 29.1167 81.9403 28.6131 81.763 28.158C81.5858 27.703 81.4278 27.3004 81.2929 26.9524C81.158 26.6043 81.0578 26.334 80.975 26.1356Z" fill="url(#paint0_linear_219_1288)"/>
<path d="M98.3873 22.9814V25.6514H94.2312V36.8932H91.1291V25.6534H86.9711V22.9814H98.3873Z" fill="#505050"/>
<path d="M100.378 36.8952V22.9814H109.684V25.6125H103.48V28.335H108.988V30.9058H103.48V34.2602H110.143V36.8893L100.378 36.8952Z" fill="#505050"/>
<path d="M116.468 22.9038C118.536 22.9038 120.121 23.2752 121.222 24.0181C122.322 24.7609 122.873 25.9154 122.873 27.4814C122.873 28.4576 122.651 29.2504 122.206 29.8597C121.708 30.5086 121.041 31.0053 120.279 31.2948C120.557 31.6429 120.857 32.0416 121.154 32.4888C121.451 32.9361 121.761 33.4067 122.06 33.8948C122.358 34.3829 122.638 34.8924 122.925 35.4194C123.212 35.9464 123.46 36.4675 123.696 36.9751H120.227L119.457 35.5905C119.2 35.1225 118.934 34.6687 118.659 34.2293C118.384 33.7898 118.114 33.3717 117.85 32.975C117.602 32.6036 117.335 32.2453 117.05 31.9015H115.52V36.9828H112.43V23.2733C113.123 23.1339 113.823 23.0365 114.528 22.9816C115.251 22.931 115.898 22.9051 116.468 22.9038ZM116.647 25.5738C116.422 25.5738 116.22 25.5738 116.04 25.5932L115.534 25.634V29.4086H116.408C117.575 29.4086 118.41 29.2608 118.913 28.9652C119.417 28.6696 119.669 28.1679 119.669 27.46C119.669 26.7781 119.412 26.2933 118.898 26.0055C118.384 25.7177 117.634 25.5738 116.647 25.5738V25.5738Z" fill="#505050"/>
<path d="M135.78 25.1516C135.356 25.5937 134.852 26.1661 134.268 26.8687C133.683 27.5714 133.08 28.3376 132.457 29.1673C131.834 29.9983 131.217 30.8546 130.607 31.7361C129.997 32.6177 129.453 33.4603 128.975 34.2641H136V36.8932H125.16V35.0381C125.53 34.3562 125.984 33.5965 126.522 32.759C127.06 31.9215 127.62 31.0788 128.202 30.231C128.785 29.3818 129.379 28.5586 129.983 27.7613C130.586 26.964 131.146 26.251 131.663 25.6222H125.484V22.9814H135.786L135.78 25.1516Z" fill="#505050"/>
</g>
<defs>
<linearGradient id="paint0_linear_219_1288" x1="74.0636" y1="29.9393" x2="88.0251" y2="29.9393" gradientUnits="userSpaceOnUse">
<stop stop-color="#7779F4"/>
<stop offset="1" stop-color="#080DED"/>
</linearGradient>
<clipPath id="clip0_219_1288">
<rect width="136" height="59.8806" fill="white"/>
</clipPath>
</defs>
</svg>
