<svg width="8" height="8" viewBox="0 0 8 8" fill="none" xmlns="http://www.w3.org/2000/svg">
<path d="M4.08405 0.780956C4.68558 0.780967 5.27359 0.96035 5.77373 1.29642C6.27388 1.63249 6.66369 2.11015 6.89388 2.66901C7.12407 3.22786 7.1843 3.84281 7.06696 4.43609C6.94961 5.02937 6.65995 5.57433 6.23462 6.00206C5.9522 6.28608 5.61692 6.51138 5.24792 6.66509C4.87892 6.81881 4.48343 6.89793 4.08402 6.89794C3.68461 6.89795 3.28911 6.81885 2.92011 6.66515C2.5511 6.51146 2.21581 6.28618 1.93338 6.00218C1.65095 5.71818 1.42691 5.38101 1.27405 5.00994C1.12119 4.63887 1.04252 4.24116 1.0425 3.83951C1.04249 3.43786 1.12115 3.04014 1.27399 2.66906C1.42683 2.29798 1.65085 1.96081 1.93326 1.67679C2.21508 1.39191 2.55027 1.16605 2.91945 1.01228C3.28863 0.858511 3.68446 0.779888 4.08405 0.780956V0.780956ZM4.08405 0.5C3.4272 0.499955 2.78509 0.69579 2.23891 1.06274C1.69274 1.42969 1.26705 1.95127 1.01566 2.56152C0.764272 3.17177 0.698485 3.84328 0.82662 4.49113C0.954755 5.13898 1.27105 5.73407 1.73552 6.20115C2.19998 6.66822 2.79175 6.98629 3.43599 7.11515C4.08022 7.244 4.74798 7.17785 5.35483 6.92505C5.96167 6.67225 6.48034 6.24416 6.84524 5.69493C7.21014 5.14569 7.40488 4.49997 7.40484 3.83943C7.40484 3.40089 7.31894 2.96664 7.15206 2.56148C6.98517 2.15633 6.74056 1.78819 6.4322 1.4781C6.12384 1.168 5.75776 0.922021 5.35486 0.754199C4.95197 0.586377 4.52014 0.5 4.08405 0.5V0.5Z" fill="#505050"/>
<path d="M7.01693 1.15244C6.98666 1.12064 6.95031 1.0953 6.91007 1.07796C6.86983 1.06062 6.82653 1.05162 6.78275 1.05151H6.76286C6.43125 1.07197 5.59445 1.1879 4.98865 1.81732C4.75704 2.05666 4.54231 2.31194 4.34602 2.58132C4.19027 2.79113 4.15275 2.83386 4.06957 2.84432C3.98616 2.83386 3.94886 2.79113 3.79312 2.58132C3.59672 2.31196 3.38192 2.05667 3.15025 1.81732C2.54469 1.18813 1.70788 1.0722 1.37605 1.0522C1.36949 1.0522 1.36271 1.0522 1.35616 1.0522C1.31236 1.05224 1.26903 1.06121 1.22878 1.07856C1.18853 1.09592 1.15219 1.12129 1.12196 1.15316C1.09173 1.18502 1.06823 1.22272 1.05289 1.26397C1.03755 1.30522 1.03068 1.34917 1.03269 1.39316C1.07632 2.33264 1.49947 2.92251 1.84644 3.25166C2.03004 3.42624 2.23819 3.57268 2.46422 3.68628L2.42421 3.80766L2.42647 3.83926C2.43186 3.91764 2.43284 3.99626 2.42941 4.07475C2.32646 4.13501 2.2468 4.22849 2.20336 4.34002H2.08175V4.85943H2.18664C2.20454 4.94885 2.23498 5.03525 2.27705 5.11606C2.19048 5.80527 2.37629 6.22011 2.55011 6.44833C2.64338 6.57287 2.76119 6.67671 2.89618 6.75338C2.9432 7.22301 3.31933 7.49987 3.92241 7.49987C3.99023 7.49987 4.04176 7.49601 4.06844 7.49351C4.09488 7.49601 4.14642 7.49987 4.21423 7.49987C4.81731 7.49987 5.19345 7.22301 5.24046 6.75338C5.37766 6.67543 5.49715 6.56951 5.59128 6.44242C5.77053 6.2042 5.96041 5.76617 5.84806 5.0315L5.84693 5.02446L5.84535 5.01786C5.84535 5.01786 5.84015 4.99672 5.83224 4.96058C5.84264 4.92717 5.85146 4.89352 5.85846 4.85943H5.96312V4.33957H5.84151C5.81291 4.26631 5.76843 4.20038 5.71131 4.14658C5.70463 4.0441 5.70463 3.94128 5.71131 3.8388L5.7138 3.80721L5.67401 3.68628C5.90017 3.57259 6.10848 3.42608 6.29224 3.25143C6.63944 2.92228 7.06236 2.33241 7.10599 1.39293C7.10801 1.34888 7.10116 1.30488 7.08585 1.26355C7.07055 1.22223 7.04711 1.18443 7.01693 1.15244V1.15244Z" fill="#FFBA57"/>
<path d="M6.94886 1.38509C6.94995 1.36161 6.94611 1.33816 6.93759 1.31627C6.92907 1.29438 6.91606 1.27454 6.8994 1.25805C6.88274 1.24156 6.86282 1.22878 6.84092 1.22055C6.81903 1.21232 6.79565 1.20882 6.77232 1.21029C6.42829 1.23165 5.66133 1.34667 5.10187 1.92813C4.3591 2.70099 4.37153 2.97899 4.06954 3.00422C3.76732 2.97899 3.77998 2.70031 3.03721 1.92813C2.47753 1.34622 1.71056 1.23143 1.36653 1.21029C1.34321 1.20886 1.31985 1.21238 1.29797 1.22062C1.27609 1.22887 1.25618 1.24165 1.23953 1.25813C1.22288 1.27462 1.20987 1.29444 1.20133 1.31631C1.1928 1.33818 1.18893 1.36162 1.18999 1.38509C1.26978 3.10174 2.65926 3.59933 2.65926 3.59933L2.58376 3.82664C2.62151 4.33309 2.4452 5.05412 2.4452 5.05412C2.2438 6.37093 3.04941 6.64939 3.04941 6.64939C3.04964 7.45975 4.06909 7.33405 4.06909 7.33405C4.06909 7.33405 5.08876 7.46043 5.08876 6.6503C5.08876 6.6503 5.89438 6.37184 5.69297 5.05503C5.69297 5.05503 5.51689 4.33354 5.55463 3.82755L5.47891 3.60023C5.47891 3.60023 6.86929 3.10174 6.94886 1.38509Z" fill="#505050"/>
<path d="M6.33281 1.60413C6.02177 1.66187 5.11218 1.86782 5.03894 2.3088C5.03894 2.3088 5.15196 2.09354 5.59297 2.01761C5.59297 2.01761 5.21525 2.14423 5.03894 2.58725C5.03894 2.58725 5.24034 2.35994 5.54256 2.3213C5.54256 2.3213 5.18994 2.51133 5.03894 2.77592C5.03894 2.77592 5.42932 2.44678 5.64315 2.44678C5.64315 2.44678 5.34116 2.62408 5.19107 2.83934C5.19107 2.83934 5.3927 2.64931 5.63185 2.64931C5.63185 2.64931 5.30454 2.72546 5.19107 3.10393C5.19107 3.10393 5.29188 2.9014 5.50594 2.85094C5.50594 2.85094 5.2799 3.10393 5.2799 3.34466C5.2799 3.34466 5.40581 3.11734 5.54437 3.00369C5.54437 3.00369 5.39337 3.18099 5.33031 3.5481C5.33031 3.5481 6.70397 2.97141 6.46052 1.68983C6.45484 1.66146 6.43821 1.6365 6.41427 1.62044C6.39033 1.60438 6.36104 1.59851 6.33281 1.60413V1.60413Z" fill="#FFBA57"/>
<path d="M1.80624 1.60397C2.1175 1.66171 3.02687 1.86765 3.10011 2.30863C3.10011 2.30863 2.98709 2.09337 2.54631 2.01745C2.54631 2.01745 2.9238 2.14406 3.10011 2.58709C3.10011 2.58709 2.8987 2.35978 2.59649 2.32114C2.59649 2.32114 2.94911 2.51117 3.10011 2.77576C3.10011 2.77576 2.70996 2.44661 2.4959 2.44661C2.4959 2.44661 2.79789 2.62392 2.94798 2.83918C2.94798 2.83918 2.74658 2.64915 2.5072 2.64915C2.5072 2.64915 2.83473 2.7253 2.94798 3.10377C2.94798 3.10377 2.84717 2.90123 2.63311 2.85077C2.63311 2.85077 2.85915 3.10377 2.85915 3.34449C2.85915 3.34449 2.73324 3.11718 2.59468 3.00352C2.59468 3.00352 2.7459 3.18083 2.80874 3.54793C2.80874 3.54793 1.43531 2.97125 1.67853 1.68967C1.68128 1.67559 1.68678 1.6622 1.6947 1.65026C1.70262 1.63833 1.7128 1.62808 1.72467 1.62012C1.73654 1.61215 1.74986 1.60663 1.76385 1.60386C1.77785 1.60109 1.79226 1.60112 1.80624 1.60397Z" fill="#FFBA57"/>
<path d="M2.38803 4.49829H2.23975V4.70083H2.38803V4.49829Z" fill="#505050"/>
<path d="M5.65872 4.70068H5.80701V4.49815H5.65872V4.70068Z" fill="#505050"/>
<path d="M4.91427 5.47723C4.70028 5.47699 4.49513 5.39138 4.34384 5.2392C4.19255 5.08702 4.10748 4.88069 4.1073 4.6655V4.638C4.10724 4.61565 4.09839 4.59423 4.08267 4.57843C4.06696 4.56263 4.04566 4.55373 4.02344 4.55367H4.02027C3.99853 4.55437 3.97791 4.56358 3.9628 4.57932C3.94769 4.59507 3.93928 4.61612 3.93935 4.638V4.6655C3.94114 4.77323 3.92159 4.88023 3.88184 4.98028C3.84208 5.08033 3.78292 5.17142 3.7078 5.24824C3.63268 5.32506 3.5431 5.38607 3.44429 5.42772C3.34548 5.46936 3.23941 5.49081 3.13227 5.49081C3.02513 5.49081 2.91906 5.46936 2.82025 5.42772C2.72144 5.38607 2.63186 5.32506 2.55674 5.24824C2.48162 5.17142 2.42245 5.08033 2.3827 4.98028C2.34294 4.88023 2.32339 4.77323 2.32519 4.6655V4.53343C2.32531 4.4346 2.3644 4.33985 2.4339 4.26997C2.50339 4.20008 2.59761 4.16076 2.69589 4.16064H5.35076C5.44904 4.16076 5.54326 4.20008 5.61276 4.26997C5.68225 4.33985 5.72135 4.4346 5.72147 4.53343V4.6655C5.72123 4.88071 5.63611 5.08704 5.48478 5.23921C5.33345 5.39139 5.12828 5.47699 4.91427 5.47723V5.47723Z" fill="#FFBA57"/>
<path d="M5.35077 4.21118H2.69591C2.65383 4.21118 2.61216 4.21952 2.57329 4.23572C2.53441 4.25192 2.49909 4.27567 2.46934 4.3056C2.4396 4.33554 2.41601 4.37107 2.39993 4.41018C2.38384 4.44928 2.37558 4.49119 2.37561 4.53351V4.66558C2.37561 4.86742 2.45534 5.06099 2.59727 5.20371C2.73919 5.34643 2.93169 5.42661 3.1324 5.42661C3.33295 5.42637 3.52521 5.34609 3.66694 5.20339C3.80867 5.06069 3.88828 4.86726 3.88828 4.66558V4.63807C3.88832 4.60307 3.90187 4.56946 3.92608 4.54431C3.95028 4.51917 3.98325 4.50445 4.01803 4.50328V4.50328C4.03603 4.50263 4.05397 4.50565 4.07079 4.51213C4.0876 4.51862 4.10294 4.52845 4.1159 4.54103C4.12885 4.55361 4.13915 4.56869 4.14618 4.58536C4.15321 4.60203 4.15683 4.61996 4.15682 4.63807V4.66558C4.15682 4.86742 4.23655 5.06099 4.37848 5.20371C4.5204 5.34643 4.7129 5.42661 4.91361 5.42661V5.42661C5.11432 5.42661 5.30681 5.34643 5.44874 5.20371C5.59066 5.06099 5.6704 4.86742 5.6704 4.66558V4.53351C5.67046 4.44816 5.63683 4.36628 5.5769 4.30584C5.51698 4.24541 5.43565 4.21136 5.35077 4.21118V4.21118Z" fill="#505050"/>
<path d="M2.65527 4.77745L3.24298 4.38079L3.10035 4.60015L3.59448 4.37988L3.16726 4.70062L3.55334 4.59924L2.73077 5.19866L2.94076 4.90315L2.65527 4.97135C2.65527 4.97135 2.97422 4.82791 2.94076 4.8195C2.90731 4.81109 2.65527 4.77745 2.65527 4.77745Z" fill="#FFBA57"/>
<path d="M4.45982 4.77745L5.04753 4.38079L4.90558 4.59924L5.40083 4.37988L4.97271 4.70062L5.35766 4.59924L4.53509 5.19866L4.74509 4.90315L4.45959 4.97135C4.45959 4.97135 4.77854 4.82791 4.74509 4.8195C4.71163 4.81109 4.45982 4.77745 4.45982 4.77745Z" fill="#FFBA57"/>
<path d="M4.92965 6.19469C4.77142 5.74007 4.17014 5.89078 4.17014 5.89078L4.0691 5.86646L3.96874 5.89146C3.96874 5.89146 3.36837 5.73893 3.21014 6.19469C3.05192 6.65045 3.24066 7.07916 3.51643 7.20759C3.77141 7.32602 4.04944 7.40899 4.07046 7.12121C4.09126 7.40899 4.36929 7.32579 4.62426 7.20759C4.89936 7.07916 5.08923 6.65045 4.92965 6.19469ZM4.07069 7.04302C4.04537 6.66318 3.34238 6.49747 3.61205 6.1565C3.61205 6.1565 3.79288 6.37177 4.07069 6.37177C4.34849 6.37177 4.5291 6.1565 4.5291 6.1565C4.79764 6.49861 4.09465 6.66432 4.0691 7.04302H4.07069Z" fill="#FFBA57"/>
<path d="M3.83903 6.42268C3.83903 6.42268 4.15775 6.52383 4.41815 6.32971C4.41815 6.32971 4.47669 6.30697 4.3761 6.44904C4.27552 6.59111 3.79811 6.56611 3.83903 6.42268Z" fill="#FFBA57"/>
</svg>
