<svg width="14" height="14" viewBox="0 0 14 14" fill="none" xmlns="http://www.w3.org/2000/svg">
<g clip-path="url(#clip0_219_728)">
<path d="M13.6151 6.37695L1.01507 0.0769498C0.891211 0.0130428 0.751097 -0.0124362 0.61267 0.00377591C0.474244 0.019988 0.343808 0.0771533 0.238069 0.16795C0.132769 0.259402 0.0571874 0.380225 0.0210186 0.514922C-0.0151502 0.64962 -0.0102576 0.792052 0.0350688 0.92395L2.10007 6.99995L0.0700688 13.076C0.0352487 13.1786 0.0247634 13.288 0.0394397 13.3955C0.0541161 13.5029 0.0935527 13.6055 0.15464 13.6951C0.215727 13.7847 0.296793 13.8588 0.391447 13.9117C0.4861 13.9647 0.591751 13.9949 0.700069 14C0.809648 13.9993 0.917543 13.9729 1.01507 13.923L13.6151 7.62295C13.7297 7.56421 13.826 7.47496 13.8931 7.36504C13.9603 7.25512 13.9959 7.12878 13.9959 6.99995C13.9959 6.87112 13.9603 6.74478 13.8931 6.63486C13.826 6.52494 13.7297 6.43569 13.6151 6.37695ZM1.89707 11.9L3.29707 7.69995H10.2971L1.89707 11.9ZM3.29707 6.29995L1.89707 2.09995L10.3321 6.29995H3.29707Z" fill="#505050"/>
</g>
<defs>
<clipPath id="clip0_219_728">
<rect width="14" height="14" fill="white"/>
</clipPath>
</defs>
</svg>
