<svg width="14" height="14" viewBox="0 0 14 14" fill="none" xmlns="http://www.w3.org/2000/svg">
<g clip-path="url(#clip0_1_1346)">
<path d="M11.0832 8.16679C10.2206 8.16999 9.40425 8.55719 8.85605 9.22319L5.70613 7.80105C5.78625 7.54145 5.82906 7.27179 5.8333 7.00014C5.82953 6.73144 5.7881 6.4646 5.71023 6.20741L8.85665 4.77826C9.89383 5.99889 11.7241 6.14761 12.9448 5.11046C14.1654 4.0733 14.3141 2.24298 13.2769 1.02236C12.2398 -0.198265 10.4095 -0.347012 9.18884 0.690167C8.53589 1.24499 8.1617 2.06011 8.1666 2.91691C8.1666 2.99973 8.1841 3.0779 8.1911 3.15898L4.72501 4.73219C4.21402 4.31578 3.57589 4.08687 2.91673 4.08353C1.30595 4.08353 0.00012207 5.38933 0.00012207 7.00014C0.00012207 8.61095 1.30592 9.91675 2.91673 9.91675C3.57304 9.91407 4.20882 9.68772 4.71918 9.27509L8.1911 10.8425C8.1841 10.9235 8.1666 11.0011 8.1666 11.0834C8.1666 12.6942 9.47239 14 11.0832 14C12.694 14 13.9998 12.6942 13.9998 11.0834C13.9998 9.47258 12.694 8.16679 11.0832 8.16679ZM11.0832 1.75029C11.7275 1.75029 12.2498 2.27262 12.2498 2.91694C12.2498 3.56125 11.7275 4.08358 11.0832 4.08358C10.4389 4.08358 9.91653 3.56125 9.91653 2.91694C9.91653 2.27262 10.4389 1.75029 11.0832 1.75029ZM2.91673 8.16679C2.27241 8.16679 1.75008 7.64445 1.75008 7.00014C1.75008 6.35582 2.27241 5.83349 2.91673 5.83349C3.56104 5.83349 4.08337 6.35582 4.08337 7.00014C4.08337 7.64445 3.56104 8.16679 2.91673 8.16679ZM11.0832 12.25C10.4389 12.25 9.91653 11.7277 9.91653 11.0834C9.91653 10.4391 10.4389 9.91675 11.0832 9.91675C11.7275 9.91675 12.2498 10.4391 12.2498 11.0834C12.2498 11.7277 11.7275 12.25 11.0832 12.25Z" fill="#505050"/>
</g>
<defs>
<clipPath id="clip0_1_1346">
<rect width="14" height="14" fill="white"/>
</clipPath>
</defs>
</svg>
