<svg width="14" height="14" viewBox="0 0 14 14" fill="none" xmlns="http://www.w3.org/2000/svg">
<path d="M4.81953 10.4999H2.0417C1.50021 10.4999 0.980906 10.2848 0.598019 9.90196C0.215132 9.51907 2.79709e-05 8.99976 2.79709e-05 8.45828V5.38528C-0.00255703 4.57976 0.174063 3.78375 0.517093 3.05491C0.860123 2.32607 1.36097 1.68266 1.98336 1.17128C2.57341 0.681671 3.26631 0.331465 4.01046 0.146741C4.75461 -0.0379833 5.53084 -0.0524676 6.28137 0.104366C7.31733 0.312762 8.26642 0.828629 9.00473 1.58464C9.74305 2.34064 10.2363 3.30167 10.4201 4.34228C10.5566 5.07647 10.5282 5.8318 10.3372 6.5537C10.1461 7.2756 9.79706 7.94605 9.31528 8.51661C8.75571 9.15484 8.0634 9.66304 7.28682 10.0056C6.51024 10.3482 5.66815 10.5169 4.81953 10.4999V10.4999ZM5.23778 1.74995C4.45388 1.74834 3.69432 2.0221 3.0917 2.52345C2.67236 2.87331 2.33488 3.3109 2.10306 3.80538C1.87125 4.29985 1.75073 4.83916 1.75003 5.38528V8.45828C1.75003 8.53564 1.78076 8.60982 1.83546 8.66452C1.89015 8.71922 1.96434 8.74995 2.0417 8.74995H4.81953C5.41319 8.76605 6.00321 8.65247 6.54846 8.41712C7.09371 8.18178 7.58106 7.83033 7.97653 7.38728C8.29248 7.01109 8.52091 6.56941 8.6453 6.09415C8.76969 5.61889 8.78693 5.12194 8.69578 4.6392C8.56755 3.94953 8.23741 3.31348 7.74724 2.81167C7.25706 2.30986 6.62892 1.96491 5.94245 1.82053C5.71041 1.77418 5.47441 1.75054 5.23778 1.74995V1.74995ZM12.2378 5.70611C12.0536 5.55819 11.8586 5.42423 11.6545 5.30537C11.6522 5.96696 11.5432 6.62386 11.3319 7.25078C11.9163 7.83384 12.2464 8.62441 12.25 9.44995V11.9583C12.25 12.0356 12.2193 12.1098 12.1646 12.1645C12.1099 12.2192 12.0357 12.2499 11.9584 12.2499H9.7067C9.24779 12.2602 8.7914 12.1793 8.36395 12.012C7.9365 11.8447 7.54647 11.5942 7.21645 11.2752C6.59772 11.4809 5.95462 11.6042 5.3037 11.6421C5.42651 11.8517 5.5662 12.0508 5.72136 12.2377C6.21709 12.8041 6.83064 13.2553 7.51906 13.5598C8.20748 13.8642 8.95412 14.0144 9.7067 13.9999H11.9584C12.4999 13.9999 13.0192 13.7848 13.402 13.402C13.7849 13.0191 14 12.4998 14 11.9583V9.44995C14.0026 8.73463 13.8461 8.0277 13.5417 7.38037C13.2373 6.73305 12.7927 6.16155 12.2401 5.70728L12.2378 5.70611Z" fill="#505050"/>
</svg>
